<?xml version="1.0" encoding="utf-8"?>
<!-- Generator: Adobe Illustrator 23.0.6, SVG Export Plug-In . SVG Version: 6.00 Build 0)  -->
<svg version="1.1" id="Calque_1" xmlns="http://www.w3.org/2000/svg" xmlns:xlink="http://www.w3.org/1999/xlink" x="0px" y="0px"
	 viewBox="0 0 586.3 590" style="enable-background:new 0 0 586.3 590;" xml:space="preserve">
<style type="text/css">
	.st0{fill:#00FF00;}
	.st1{fill:#FFFF00;}
	.st2{fill:#FF0000;}
	.st3{fill:#0000FF;}
</style>
<path class="st0" d="M120.6,533.9c48.5,35.3,108,56.1,172.5,56.1s124.2-20.8,172.5-56.1L293.1,413.7L120.6,533.9z"/>
<polygon class="st1" points="293.1,0 362.8,199.9 223.7,199.9 "/>
<path class="st2" d="M14.3,205.9C5,234.5,0,265,0,296.5c0,97.6,47.6,183.9,120.6,237.3l60.9-201.3L14.3,205.9z"/>
<path class="st3" d="M572,205.8L404.7,332.6l60.9,201.3c73-53.5,120.6-139.9,120.6-237.3C586.3,264.8,581.1,234.4,572,205.8z"/>
</svg>
